<svg width="16" height="16" viewBox="0 0 16 16" xmlns="http://www.w3.org/2000/svg" xmlns:xlink="http://www.w3.org/1999/xlink" id="Car-Front-Fill--Streamline-Bootstrap" overflow="hidden"><path d="M2.52 3.515C2.91431 2.59516 3.8192 1.99911 4.82 2L11.182 2C12.182 2 13.086 2.596 13.48 3.515L14.272 5.363C14.347 5.538 14.482 5.682 14.652 5.767 15.152 6.017 15.507 6.482 15.617 7.029L15.952 8.708C15.9853 8.86933 16.0017 9.03267 16.001 9.198L16.001 9.611C16.001 10.425 15.611 11.154 15.001 11.608L15.001 13.5C15.001 13.7761 14.7771 14 14.501 14L12.501 14C12.2249 14 12.001 13.7761 12.001 13.5L12.001 12.162C10.709 12.21 9.256 12.25 8.001 12.25 6.746 12.25 5.293 12.21 4.001 12.162L4.001 13.5C4.001 13.7761 3.77714 14 3.501 14L1.501 14C1.22486 14 1.001 13.7761 1.001 13.5L1.001 11.608C0.391 11.154 0.001 10.425 0.001 9.611L0.001 9.198C0.00116783 9.03345 0.0175808 8.86932 0.05 8.708L0.385 7.028C0.495 6.482 0.85 6.016 1.349 5.767 1.52016 5.68215 1.65531 5.53884 1.73 5.363L2.522 3.515ZM3 10C3.55228 10 4 9.55229 4 9 4 8.44771 3.55228 8 3 8 2.44772 8 2 8.44771 2 9 2 9.55229 2.44772 10 3 10M13 10C13.5523 10 14 9.55229 14 9 14 8.44771 13.5523 8 13 8 12.4477 8 12 8.44771 12 9 12 9.55229 12.4477 10 13 10M6 8C5.44772 8 5 8.44771 5 9 5 9.55229 5.44772 10 6 10L10 10C10.5523 10 11 9.55229 11 9 11 8.44771 10.5523 8 10 8ZM2.906 5.189C2.78316 5.44247 2.88905 5.74752 3.14252 5.87036 3.22345 5.90959 3.31332 5.92671 3.403 5.92 4.313 5.847 6.753 5.75 8 5.75 9.247 5.75 11.688 5.847 12.597 5.92 12.8779 5.94102 13.1226 5.73036 13.1436 5.44948 13.1503 5.3598 13.1332 5.26993 13.094 5.189L12.138 3.276C12.0532 3.10683 11.8802 3.00001 11.691 3L4.309 3C4.11978 3.00001 3.94677 3.10683 3.862 3.276L2.906 5.19Z" fill="#FFFFFF"/></svg>