<svg width="241" height="242" xmlns="http://www.w3.org/2000/svg" xmlns:xlink="http://www.w3.org/1999/xlink" overflow="hidden"><g transform="translate(-795 -189)"><path d="M796 310C796 243.726 849.726 190 916 190 982.274 190 1036 243.726 1036 310 1036 376.274 982.274 430 916 430 849.726 430 796 376.274 796 310Z" fill="#D0CECE" fill-rule="evenodd"/><g><g><g><path d="M142 66.5625C142 86.1686 126.106 102.062 106.5 102.062 86.8939 102.062 71 86.1686 71 66.5625 71 46.9564 86.8939 31.0625 106.5 31.0625 126.106 31.0625 142 46.9564 142 66.5625Z" fill="#FFFFFF" transform="matrix(1 0 0 1.00469 809 203)"/><path d="M177.5 181.938 177.5 146.438C177.5 141.113 174.838 135.788 170.4 132.238 160.637 124.25 148.213 118.925 135.788 115.375 126.912 112.713 117.15 110.938 106.5 110.938 96.7375 110.938 86.975 112.713 77.2125 115.375 64.7875 118.925 52.3625 125.138 42.6 132.238 38.1625 135.788 35.5 141.113 35.5 146.438L35.5 181.938 177.5 181.938Z" fill="#FFFFFF" transform="matrix(1 0 0 1.00469 809 203)"/></g></g></g></g></svg>